<mxfile host="app.diagrams.net" modified="2020-10-21T13:08:56.497Z" agent="5.0 (Windows NT 10.0; Win64; x64) AppleWebKit/537.36 (KHTML, like Gecko) Chrome/85.0.4183.102 YaBrowser/20.9.2.102 Yowser/2.5 Safari/537.36" etag="f3gK5PP9mFepPJ-fKrdz" version="13.8.0" type="github">
  <diagram id="fOdvcmo1v5s1luOW1iuK" name="Page-1">
    <mxGraphModel dx="864" dy="834" grid="1" gridSize="10" guides="1" tooltips="1" connect="1" arrows="1" fold="1" page="1" pageScale="1" pageWidth="827" pageHeight="1169" math="0" shadow="0">
      <root>
        <mxCell id="0" />
        <mxCell id="1" parent="0" />
        <mxCell id="1DH27ewAFVcJ5c7RRmhL-1" value="Нарушитель" style="rounded=1;whiteSpace=wrap;html=1;" vertex="1" parent="1">
          <mxGeometry x="40" y="110" width="120" height="60" as="geometry" />
        </mxCell>
        <mxCell id="1DH27ewAFVcJ5c7RRmhL-2" value="Угроза" style="rounded=1;whiteSpace=wrap;html=1;" vertex="1" parent="1">
          <mxGeometry x="120" y="170" width="120" height="60" as="geometry" />
        </mxCell>
        <mxCell id="1DH27ewAFVcJ5c7RRmhL-3" value="Уязвимость" style="rounded=1;whiteSpace=wrap;html=1;" vertex="1" parent="1">
          <mxGeometry x="246.25" y="250" width="120" height="60" as="geometry" />
        </mxCell>
        <mxCell id="1DH27ewAFVcJ5c7RRmhL-4" value="Оценка ущерба бизнес процессу" style="rounded=1;whiteSpace=wrap;html=1;" vertex="1" parent="1">
          <mxGeometry x="450" y="390" width="120" height="60" as="geometry" />
        </mxCell>
        <mxCell id="1DH27ewAFVcJ5c7RRmhL-5" value="" style="endArrow=classic;html=1;exitX=1;exitY=0.5;exitDx=0;exitDy=0;entryX=0.5;entryY=0;entryDx=0;entryDy=0;" edge="1" parent="1" source="1DH27ewAFVcJ5c7RRmhL-1" target="1DH27ewAFVcJ5c7RRmhL-2">
          <mxGeometry width="50" height="50" relative="1" as="geometry">
            <mxPoint x="350" y="390" as="sourcePoint" />
            <mxPoint x="400" y="340" as="targetPoint" />
            <Array as="points">
              <mxPoint x="180" y="140" />
            </Array>
          </mxGeometry>
        </mxCell>
        <mxCell id="1DH27ewAFVcJ5c7RRmhL-6" value="" style="endArrow=classic;html=1;entryX=0.5;entryY=0;entryDx=0;entryDy=0;exitX=0.5;exitY=1;exitDx=0;exitDy=0;" edge="1" parent="1" source="1DH27ewAFVcJ5c7RRmhL-13" target="1DH27ewAFVcJ5c7RRmhL-3">
          <mxGeometry width="50" height="50" relative="1" as="geometry">
            <mxPoint x="354" y="280" as="sourcePoint" />
            <mxPoint x="400" y="340" as="targetPoint" />
            <Array as="points" />
          </mxGeometry>
        </mxCell>
        <mxCell id="1DH27ewAFVcJ5c7RRmhL-9" value="Актив" style="rounded=1;whiteSpace=wrap;html=1;" vertex="1" parent="1">
          <mxGeometry x="365" y="330" width="120" height="60" as="geometry" />
        </mxCell>
        <mxCell id="1DH27ewAFVcJ5c7RRmhL-10" value="" style="endArrow=classic;html=1;exitX=1;exitY=0.5;exitDx=0;exitDy=0;entryX=0.567;entryY=-0.033;entryDx=0;entryDy=0;entryPerimeter=0;" edge="1" parent="1" source="1DH27ewAFVcJ5c7RRmhL-9" target="1DH27ewAFVcJ5c7RRmhL-4">
          <mxGeometry width="50" height="50" relative="1" as="geometry">
            <mxPoint x="350" y="380" as="sourcePoint" />
            <mxPoint x="400" y="330" as="targetPoint" />
            <Array as="points">
              <mxPoint x="518" y="360" />
            </Array>
          </mxGeometry>
        </mxCell>
        <mxCell id="1DH27ewAFVcJ5c7RRmhL-11" value="Риск" style="rounded=1;whiteSpace=wrap;html=1;" vertex="1" parent="1">
          <mxGeometry x="565" y="480" width="120" height="60" as="geometry" />
        </mxCell>
        <mxCell id="1DH27ewAFVcJ5c7RRmhL-13" value="Вероятность&lt;br&gt;возникновения&lt;br&gt;угрозы" style="ellipse;whiteSpace=wrap;html=1;" vertex="1" parent="1">
          <mxGeometry x="260" y="163.75" width="92.5" height="72.5" as="geometry" />
        </mxCell>
        <mxCell id="1DH27ewAFVcJ5c7RRmhL-14" value="" style="endArrow=classic;html=1;exitX=1;exitY=0.5;exitDx=0;exitDy=0;entryX=0;entryY=0.5;entryDx=0;entryDy=0;" edge="1" parent="1" source="1DH27ewAFVcJ5c7RRmhL-2" target="1DH27ewAFVcJ5c7RRmhL-13">
          <mxGeometry width="50" height="50" relative="1" as="geometry">
            <mxPoint x="280" y="230" as="sourcePoint" />
            <mxPoint x="340" y="300" as="targetPoint" />
            <Array as="points" />
          </mxGeometry>
        </mxCell>
        <mxCell id="1DH27ewAFVcJ5c7RRmhL-15" value="Вероятность реализации угрозы" style="ellipse;whiteSpace=wrap;html=1;" vertex="1" parent="1">
          <mxGeometry x="380" y="245" width="90" height="70" as="geometry" />
        </mxCell>
        <mxCell id="1DH27ewAFVcJ5c7RRmhL-18" value="" style="endArrow=classic;html=1;exitX=1;exitY=0.5;exitDx=0;exitDy=0;" edge="1" parent="1" source="1DH27ewAFVcJ5c7RRmhL-3" target="1DH27ewAFVcJ5c7RRmhL-15">
          <mxGeometry width="50" height="50" relative="1" as="geometry">
            <mxPoint x="360" y="360" as="sourcePoint" />
            <mxPoint x="410" y="310" as="targetPoint" />
          </mxGeometry>
        </mxCell>
        <mxCell id="1DH27ewAFVcJ5c7RRmhL-19" value="" style="endArrow=classic;html=1;exitX=0.5;exitY=1;exitDx=0;exitDy=0;entryX=0.5;entryY=0;entryDx=0;entryDy=0;" edge="1" parent="1" source="1DH27ewAFVcJ5c7RRmhL-15" target="1DH27ewAFVcJ5c7RRmhL-9">
          <mxGeometry width="50" height="50" relative="1" as="geometry">
            <mxPoint x="360" y="360" as="sourcePoint" />
            <mxPoint x="410" y="310" as="targetPoint" />
          </mxGeometry>
        </mxCell>
        <mxCell id="1DH27ewAFVcJ5c7RRmhL-20" value="Итоговая оценка риска" style="rounded=1;whiteSpace=wrap;html=1;" vertex="1" parent="1">
          <mxGeometry x="650" y="540" width="120" height="60" as="geometry" />
        </mxCell>
        <mxCell id="1DH27ewAFVcJ5c7RRmhL-21" value="" style="endArrow=classic;html=1;exitX=1;exitY=0.5;exitDx=0;exitDy=0;entryX=0.5;entryY=0;entryDx=0;entryDy=0;" edge="1" parent="1" source="1DH27ewAFVcJ5c7RRmhL-11" target="1DH27ewAFVcJ5c7RRmhL-20">
          <mxGeometry width="50" height="50" relative="1" as="geometry">
            <mxPoint x="650" y="460" as="sourcePoint" />
            <mxPoint x="820" y="700" as="targetPoint" />
            <Array as="points">
              <mxPoint x="710" y="510" />
            </Array>
          </mxGeometry>
        </mxCell>
        <mxCell id="1DH27ewAFVcJ5c7RRmhL-22" value="Вероятность&amp;nbsp;&lt;br&gt;потери ресурсов" style="ellipse;whiteSpace=wrap;html=1;" vertex="1" parent="1">
          <mxGeometry x="580" y="390" width="90" height="70" as="geometry" />
        </mxCell>
        <mxCell id="1DH27ewAFVcJ5c7RRmhL-23" value="" style="endArrow=classic;html=1;exitX=1;exitY=0.5;exitDx=0;exitDy=0;" edge="1" parent="1" source="1DH27ewAFVcJ5c7RRmhL-4" target="1DH27ewAFVcJ5c7RRmhL-22">
          <mxGeometry width="50" height="50" relative="1" as="geometry">
            <mxPoint x="530" y="550" as="sourcePoint" />
            <mxPoint x="580" y="500" as="targetPoint" />
          </mxGeometry>
        </mxCell>
        <mxCell id="1DH27ewAFVcJ5c7RRmhL-24" value="" style="endArrow=classic;html=1;exitX=0.5;exitY=1;exitDx=0;exitDy=0;entryX=0.5;entryY=0;entryDx=0;entryDy=0;" edge="1" parent="1" source="1DH27ewAFVcJ5c7RRmhL-22" target="1DH27ewAFVcJ5c7RRmhL-11">
          <mxGeometry width="50" height="50" relative="1" as="geometry">
            <mxPoint x="530" y="550" as="sourcePoint" />
            <mxPoint x="705" y="580" as="targetPoint" />
          </mxGeometry>
        </mxCell>
      </root>
    </mxGraphModel>
  </diagram>
</mxfile>
